<?xml version="1.0" encoding="UTF-8"?>
<svg id="Layer_1" data-name="Layer 1" xmlns="http://www.w3.org/2000/svg" xmlns:xlink="http://www.w3.org/1999/xlink" viewBox="0 0 461.79 650">
  <defs>
    <style>
      .cls-1 {
        fill: none;
      }

      .cls-2 {
        clip-path: url(#clippath);
      }
    </style>
    <clipPath id="clippath">
      <rect class="cls-1" x="105.02" y="138.44" width="210.93" height="162.14"/>
    </clipPath>
  </defs>
  <path d="M413.13,65.52v316.14l-39.8,18.89V72.19c0-20.27-12.61-32.39-33.62-32.39H73.43c-21.26,0-33.62,12.11-33.62,32.39v412.88c0,20.27,12.36,32.14,33.62,32.14h111.32c-1.05,14.78,4.63,29.82,16.22,39.81H68.48c-41.04,0-68.48-26.21-68.48-65.27V65.52C0,26.45,27.44,0,68.48,0h276.16c41.04,0,68.48,26.45,68.48,65.52ZM212.38,476.92c-10.51,5.2-17.91,12.83-22.38,21.51h-53.53c-6.68,0-11.37-4.7-11.37-11.62s4.7-11.37,11.37-11.37h79.03l-3.13,1.48Z"/>
  <path d="M235.13,535.02h91.72c4.45,0,7.17,2.96,7.17,7.42v90.49c0,20.03,21.26,22.25,27.69,7.67l97.66-208.17c8.4-17.31-6.43-31.89-23.98-23.74l-207.93,98.4c-14.09,7.17-11.87,27.94,7.66,27.94Z"/>
  <g class="cls-2">
    <path d="M312.69,165.74v107.62c0,18.14-9.16,27.21-27.65,27.21h-152.36c-18.41,0-27.65-9.07-27.65-27.21v-107.62c0-18.14,9.25-27.3,27.65-27.3h152.36c18.49,0,27.65,9.16,27.65,27.3ZM236.33,184.59l-37.61,60.42-17.97-23.07c-2.11-2.91-4.14-3.7-6.6-3.7-4.05,0-7.05,3.26-7.05,7.22,0,2.03.7,3.96,2.11,5.72l22.02,27.13c2.38,3.08,4.76,4.32,7.84,4.32s5.55-1.41,7.31-4.32l41.48-65.17c1.06-1.85,2.2-3.88,2.2-5.81,0-4.14-3.61-6.78-7.49-6.78-2.38,0-4.67,1.41-6.25,4.05Z"/>
  </g>
</svg>