<?xml version="1.0" encoding="UTF-8"?>
<svg id="icon_wrapper" xmlns="http://www.w3.org/2000/svg" viewBox="0 0 532.42 650">
  <defs>
    <style>
      .cls-1 {
        fill: none;
      }

      .cls-2 {
        fill: #fff;
      }
    </style>
  </defs>
  <path class="cls-1" d="M319.01,10.84c-16-14.97-37.11-10.05-57.26-10.11-50.45-.16-100.89-.83-151.31-.01-15.17.25-31.03-1.91-44.67,6.68-18.16,11.44-15.89,30.68-16.13,49.49-1.67,127.62,1.01,254.58.36,382.16-.09,18.03,1.07,32.52,12.63,48.44,15.33,21.11,42.37,17.08,64.88,17.12,40.68.07,81.53,2.51,122.46.85,3.99-.16,8.37-.98,12.47-.9,3.51-1.18.56-8.8.46-11.41s.13-5.15,0-8.16c-.15-3.77,1-8.13-.81-11.75-17.17-16.19-31.66-35.47-51.1-49.14-40.1.38-80.56,1.36-120.56-.34-4.16-.18-12.78,1.19-15.96-1.08-2.28-1.63-2.14-5.43-2.28-8.11-1.31-24.96.14-52.03.07-77.23-.23-85.41.52-209.57-.8-295.26,2.64-7.68-3.97-19.38,7.78-20.47s26.08.56,38,.5c28.16-.14,56.66-.02,84.59,0l103.19.1c1.88,1.13,2.9,1.97,3.2,4.22,2.05,15.51-1.86,73.31.43,89.21l-.5,241.06c.24,2.46,3.6,4.54,5.62,6.25,3.02,2.56,8.14,6.63,11.45,8.58,2.33,1.38,3.4,1.98,3.78-1.47,2.51-22.62,1.54-43.02,1.66-65.56.44-86.08,1.16-172.82-.07-258.74-.2-13.91-.46-24.5-11.58-34.91ZM172.14,118.2l-.89.59.37,12.34c2.31.45,11.81,1.47,13.08-.39-.42-3.19,1.13-9.53-1.18-11.51-2.43-2.08-8.22-.91-11.37-1.03ZM210.81,119.01c-2.08-2.08-9.63-.35-12.27.74l-.91,11.71c-4.23.17-8.41-1.94-12.51.1l-.8,9.96c-4.52,1.67-13.38-2.59-13.98,3.84s.35,14.3.59,20.57c.1,2.7-.61,15.72.83,16.63,2.77.25,11.56.55,12.89-2.11,1.74-3.47-1.13-22.94,1.21-24.39,3.43-1.05,12.41,1.56,13.23-2.72.4-2.12-.76-7.9.72-8.93l11.14-1.1c-.33-4.38,2.44-21.7-.14-24.27ZM286.56,181.8c1.63-5.33.09-10.59.05-15.84-.07-11.1.64-22.34.45-33.42-.05-2.74-.09-11.59-1.49-12.98-2.34-2.32-54.61.55-62.02-1.11-1.05,1.06-1.33,2.33-1.47,3.76-1.13,11.39-.15,27.43-.01,39.32.06,5.02-.35,11.62,0,16.33.1,1.35.11,2.72.94,3.87l63.53.07ZM95.98,122.18v59.36c5.17,2.72,12.57.46,18.14.34,15.25-.35,30.45,1.04,45.67.78l.31-63.16-60.08-.7c-1.62-.32-3.77,2.06-4.04,3.38ZM35.87,221.98v-68.64s-1.21-1.75-1.21-1.75c-33.29-.27-47.13,37.07-21.05,58.89,2.6,2.18,20.36,13.36,22.27,11.49ZM197.63,181.16c.51.05,1.45.66,2.56.75,3.48.29,7.27-.21,10.79-.01,1.58-11.86.96-16.18-12.5-13.25-2.05,4.19-1.06,8.24-.84,12.52-1.29-.12-2.28-.72-3.96-.69s-8.15.71-8.55,1.91c.63,9.82-1.21,21.47-.1,31.06.2,1.73.51,3.57,1.85,4.82h11.5v11.87l-13.35.74c4.62-15.62-.51-13.44-12.62-12.61.35-1.92,1.29-3.55,1.49-5.56.62-6.12-.51-13.09.05-19.32l-.22-.93c-2.59-2.62-4.46-.68-6.89-.83-2.09-.13-3.96-.77-5.9-.84-4.86-.17-22.37-.84-25.85.18s-1.38,8.67-3.43,11.41c-1.69,1.25-8.99-2.41-10.32,1.55-.45,1.34-.68,19.74-.54,22.48.07,1.31.28,3.92,1.62,4.38,8.87.33,17.77-.1,26.65.06,3.25.06,5.59,1.49,9.31.44s3.08-9.46,1.73-12.37c-.59-.42-6.91-1.42-8.07-1.42-2.84,0-10.69.39-13.36.8-1.38.21-3.22,2.67-4.51.74-.53-.79.78-11.49,1.26-12.89.4-1.17,1.79-1.4,2.8-1.65,2.02-.49,18.85-1.46,20.34-.97.95.25,1.07.9,1.22,1.75.39,2.2.18,11.05,1.06,12.3,3.99,2.25,7.78.95,11.55.69-1.73,9.38-.85,15.59-.71,24.83.07,4.66-.96,20.69.07,23.67s9.85.35,12.52,1.96v10.76c1.26,1.71,11.69,1.47,12.66.79l1.39-11.22c4.4-1.11,9.65,1.08,13.4-2.18v-11.13c-2.11-2.5-5.33-.42-7.83-.4-2.74.03-18.28-.02-18.78-.82-.55-3.72.18-7.45,1.5-10.9l36.12-.76c1.58,1-.52,10.01-.61,12.15-.19,4.99-.18,11.49.13,16.31.17,2.58.94,5.31.69,8.06l1.12,1.11c10.87,1.53,11.72-2.11,11.83-11.85,2.83-1.25,5.92-.29,8.8-.7,1.41-.2,2.61-1.2,4.12-1.44-.11,4.53-1.53,8.95,0,13.36h-10.76c-.52,0-2.2,1-3.19.89-.31.26-.85,3.22-.9,3.95-.29,4.36-.47,13.75-.01,17.81.73,6.39,3.51,3.12,7.06,3.26,12.37.48,26.22,1.99,38.61.84,8.02-.75,8.39-6.49,6.31-13.05-.39-.26-8.14-.94-9.3-.93-5.47.03-13.36,4.15-14.4-3.56-2.53-18.78,13.1-7.97,23.69-11.04l.63-.85c-.36-5.12,2.09-17.36-.7-21.37-1.46-2.1-9.4-1.36-11.81-.43l.11-23.26,1-1.23h11.13c1.98-2.41.99-11.71-1.87-12.97l-22.25.72c-3.25,4.04-1.6,7.94-1.75,12-.29,7.83-1.18,15.72.42,23.48l.97,1.25h11.5l-.08,9.57c-8.27.89-16.2.24-24.41,1.56.15-6.51-.51-13.09-.46-19.53.05-5.24,2.4-10.46.12-16.12-.57-.88-1.3-.68-2.17-.64-7.04.27-14.98,1.52-21.63-.05-1.76-2.97-.15-5.75-.3-8.54-.16-3.1-2.26-15.5.5-16.71l10.44-1.6c.48-4.09,1.82-8.38.02-12.38l-23.57-.03c-.95,3.63-1.23,7.4-.07,11.05l-12.15.69c-.91-.31-1.05-.97-1.2-1.8-.73-3.98.27-10.43.03-14.87-.09-1.68-.69-3.19-.77-4.79ZM100.05,191.21l-3.35.69c-.6.34-.61.9-.73,1.49-.41,2.07-.33,22.68.16,24.35.81,2.75,9.03,2.5,11.2,1.86,3.92-1.16.94-11.48,2.33-14.73.96-1.41,9.67.9,11.17-2.18.94-1.93.14-9.94-1.41-11.21l-19.38-.26ZM248.09,202.68h-10.76c-2.32,0-3.27,14.44-.82,16.4,2.27,1.81,6.35-.05,8.95-.11,2.93-.07,13.99.86,15.3-1.21,2.1-3.31.59-20.8.32-25.48-1.39-2.35-8.95-1.62-11.32-.55l-1.67,10.95ZM285.75,203.25c4.08-13.11-2.04-14.29-12.84-10.98-.34,2.32-1.06,9.34.38,10.8,1.73,1.76,10.54,2.08,12.46.18ZM187.24,520.26c-.08.82,0,1.59.2,2.4.92,3.59,7.29,16.14,9.33,20.35,13.09,26.99,30.01,53.09,54.8,70.6,10.7,7.56,24.14,12.86,33.97,20.93,5.17,4.25,8.7,10.27,14.06,14.13l162.58.72c20.2-1.95,43.63,2.07,63.73-.03,6.86-.72,7.43-2.79,5.66-9.31-9.95-26.23-25.31-52.13-34.19-78.59-7.64-22.77-8.56-50.29-11.93-74.14-4.69-33.24-10.22-66.36-14.66-99.61-3.93-29.46-.5-47.01-20.15-71.86-10.31-13.04-22.92-25.47-33.75-38.22-14.43-16.98-32.96-43.74-49.33-57.52-6.28-5.29-13.48-7.55-21.58-7.46l-.72,54.99c1.78,15.3-2.02,32.79.1,48.13.85,6.15,14.03,20.71,13.91,22.19-7.41,11.14-13.44,20.75-15.37,34.36-1.12,7.87-2.45,12.01,3.61,17.73,5.49,5.18,12.95,9.58,18.71,14.47,3.43,2.91,12.31,10.21,14.7,13.17,6.01,7.45-1.26,13.71-9.96,9.75-7.87-3.58-27.1-20.92-34.93-27.39-24.01-19.84-47.16-41.1-72.02-60.06-20.01-15.27-39.9-23.77-61.86-4.77-17.79,15.39-15.21,38.55-1.54,55.56,19.3,24.02,48.31,43.64,67.49,68.3,11.24,14.45,8.48,19.71,10.42,36.33,4.51,38.73,15.56,63.71,44.12,90.18,3.91,3.62,24.04,16.15,13.96,21.34-4.23,2.18-6.58.58-10.09-1.47-23.85-13.91-42.51-39.14-52.8-64.44-2.78-6.84-4.37-14.18-7.5-20.69l-78.97-.05ZM115.65,241.7c-4.17.07-9.35-.04-13.35.33-1.5.14-5.77.62-6.22,1.94l.23,61.91c.48.69,6.97,1.13,8.33,1.16,14.27.26,35.08.82,48.88-.43,2.74-.25,6.27-.66,6.31-4.08l-.4-59.03c-1.96-2.32-4.29-.49-6.69-.67-12.19-.89-24.84-1.34-37.09-1.12ZM35.77,252.5c-13.49-3.65-31.02,7.26-34.56,20.51-2.73,10.2-.83,21.84,5.75,30.2,4.32,5.49,21.62,17.85,28.54,17.47l.28-68.17ZM184.27,294.32v-12.61c-2.16-2.27-11.09-2.93-12.49-.62-1.27,2.08-1.36,21.57-.32,23.82,1.58,3.39,6.76,1,9.47,1.07,9.47.24,19.07,2.4,28.42.1l.9-.81,1.6-10.44c2.35-.71,9.49-.4,10.64-2.34.92-1.57.77-11.17-1.12-12.3-3.72.04-7.86.84-11.5,1.02-2.66.13-10.23-1.48-12.2,1.31-2.2,3.13-.1,10.16-1.49,11.13l-10.38,1.51-1.54-.82ZM35.88,403.03l.03-62.74c-.19-5.87-11.78-2.48-15.38-1.22-17.66,6.2-25.73,27.27-16.96,43.95,5.93,11.27,20.16,18.57,32.31,20.01Z"/>
  <path d="M187.24,520.26l78.97.05c3.13,6.51,4.72,13.85,7.5,20.69,10.29,25.3,28.96,50.52,52.8,64.44,3.51,2.05,5.85,3.65,10.09,1.47,10.08-5.19-10.05-17.72-13.96-21.34-28.56-26.47-39.61-51.45-44.12-90.18-1.93-16.62.82-21.88-10.42-36.33-19.18-24.66-48.19-44.28-67.49-68.3-13.67-17.01-16.25-40.17,1.54-55.56,21.97-19,41.85-10.5,61.86,4.77,24.85,18.97,48.01,40.22,72.02,60.06,7.84,6.48,27.07,23.81,34.93,27.39,8.69,3.96,15.97-2.3,9.96-9.75-2.39-2.96-11.27-10.26-14.7-13.17-5.77-4.88-13.22-9.29-18.71-14.47-6.06-5.72-4.73-9.86-3.61-17.73,1.94-13.61,7.97-23.22,15.37-34.36.12-1.47-13.07-16.04-13.91-22.19-2.11-15.34,1.69-32.83-.1-48.13l.72-54.99c8.1-.08,15.3,2.18,21.58,7.46,16.36,13.78,34.9,40.54,49.33,57.52,10.83,12.75,23.44,25.18,33.75,38.22,19.64,24.85,16.21,42.4,20.15,71.86,4.44,33.25,9.97,66.36,14.66,99.61,3.37,23.85,4.29,51.38,11.93,74.14,8.88,26.46,24.24,52.36,34.19,78.59,1.78,6.52,1.2,8.59-5.66,9.31-20.09,2.11-43.53-1.92-63.73.03l-162.58-.72c-5.36-3.86-8.89-9.88-14.06-14.13-9.83-8.08-23.27-13.37-33.97-20.93-24.78-17.51-41.71-43.61-54.8-70.6-2.04-4.21-8.4-16.77-9.33-20.35-.21-.81-.28-1.57-.2-2.4Z"/>
  <path d="M319.01,10.84c11.13,10.41,11.38,21,11.58,34.91,1.23,85.92.51,172.66.07,258.74-.12,22.54.85,42.93-1.66,65.56-.38,3.45-1.45,2.85-3.78,1.47-3.31-1.95-8.43-6.02-11.45-8.58-2.02-1.71-5.38-3.8-5.62-6.25l.5-241.06c-2.28-15.9,1.85-80-.43-89.21,0-.02.71,15.45.71,15.43.59-14.52-10.59-21.09-19.38-21.15l-87.71-.08c-27.94-.02-56.43-.14-84.59,0-11.92.06-28.5-1.93-36.64,4.96-7.26,6.15-8.41,18.48-8.99,26.82,1.32,85.69.43,199.53.66,284.94.07,25.2-.66,84.14.65,109.09.14,2.68,1.35,15.08,8.47,22.62s18.02,7.01,22.18,7.19c40,1.7,69.29.32,109.39-.06,19.73.72,47.85-1.34,49.58,1.23,1.1,3.03.21,3.82.37,7.59.12,3.01-.11,5.6,0,8.16s3.05,10.24-.46,11.41c-4.09-.08-8.48.74-12.47.9-40.93,1.66-81.78-.78-122.46-.85-22.51-.04-49.55,3.98-64.88-17.12-11.56-15.91-12.72-30.41-12.63-48.44.65-127.58-2.03-254.54-.36-382.16.25-18.81-2.03-38.05,16.13-49.49C79.41-1.2,95.28.96,110.44.71c50.41-.82,100.86-.15,151.31.01,20.15.07,41.26-4.85,57.26,10.11Z"/>
  <path d="M197.63,181.16c-.21-4.28-1.21-8.32.84-12.52,13.47-2.93,14.08,1.39,12.5,13.25-3.52-.19-7.3.3-10.79.01-1.11-.09-2.05-.7-2.56-.75.08,1.6.68,3.11.77,4.79.25,4.43-.76,10.88-.03,14.87.15.84.3,1.5,1.2,1.8l12.15-.69c-1.16-3.65-.88-7.41.07-11.05l23.57.03c1.8,4,.46,8.29-.02,12.38l-10.44,1.6c-2.77,1.22-.66,13.61-.5,16.71.14,2.78-1.46,5.57.3,8.54,6.65,1.57,14.59.32,21.63.05.87-.03,1.59-.23,2.17.64,2.27,5.66-.08,10.88-.12,16.12-.06,6.44.61,13.02.46,19.53,8.21-1.32,16.14-.67,24.41-1.56l.08-9.57h-11.5l-.97-1.25c-1.6-7.76-.71-15.65-.42-23.48.15-4.06-1.5-7.96,1.75-12l22.25-.72c2.86,1.26,3.85,10.55,1.87,12.97h-11.13l-1,1.23-.11,23.26c2.41-.93,10.34-1.67,11.81.43,2.79,4.01.34,16.25.7,21.37l-.63.85c-10.59,3.07-26.22-7.73-23.69,11.04,1.04,7.71,8.93,3.59,14.4,3.56,1.17,0,8.92.67,9.3.93,2.09,6.56,1.72,12.3-6.31,13.05-12.4,1.15-26.24-.35-38.61-.84-3.55-.14-6.33,3.13-7.06-3.26-.46-4.06-.28-13.45.01-17.81.05-.73.59-3.69.9-3.95.99.11,2.67-.89,3.19-.89h10.76c-1.53-4.4-.11-8.83,0-13.36-1.52.24-2.72,1.24-4.12,1.44-2.88.41-5.97-.55-8.8.7-.11,9.74-.96,13.38-11.83,11.85l-1.12-1.11c.25-2.76-.52-5.49-.69-8.06-.31-4.81-.33-11.32-.13-16.31.08-2.14,2.19-11.15.61-12.15l-36.12.76c-1.32,3.45-2.05,7.19-1.5,10.9.5.8,16.04.85,18.78.82,2.5-.03,5.71-2.1,7.83.4v11.13c-3.75,3.26-9.01,1.07-13.4,2.18l-1.39,11.22c-.97.68-11.4.92-12.66-.79v-10.76c-2.67-1.61-11.54.87-12.52-1.96-1.03-2.98,0-19.01-.07-23.67-.14-9.23-1.01-15.45.71-24.83-3.78.26-7.57,1.56-11.55-.69-.87-1.25-.67-10.1-1.06-12.3-.15-.85-.27-1.5-1.22-1.75-1.5-.49-18.32.48-20.34.97-1.01.24-2.4.48-2.8,1.65-.48,1.4-1.79,12.1-1.26,12.89,1.29,1.93,3.13-.52,4.51-.74,2.67-.41,10.51-.8,13.36-.8,1.16,0,7.48,1,8.07,1.42,1.35,2.91,1.89,11.35-1.73,12.37s-6.06-.38-9.31-.44c-8.88-.16-17.77.27-26.65-.06-1.34-.46-1.56-3.07-1.62-4.38-.14-2.74.08-21.14.54-22.48,1.33-3.96,8.63-.3,10.32-1.55,2.06-2.74.09-10.43,3.43-11.41s21-.35,25.85-.18c1.94.07,3.81.71,5.9.84,2.42.15,4.29-1.78,6.89.83l.22.93c-.56,6.23.56,13.2-.05,19.32-.2,2.01-1.14,3.64-1.49,5.56,12.1-.83,17.24-3.01,12.62,12.61l13.35-.74v-11.87h-11.5c-1.34-1.25-1.65-3.09-1.85-4.82-1.11-9.59.73-21.24.1-31.06.39-1.2,6.9-1.88,8.55-1.91s2.68.57,3.96.69Z"/>
  <path d="M286.56,181.8l-63.53-.07c-.83-1.15-.84-2.52-.94-3.87-.36-4.71.05-11.31,0-16.33-.13-11.89-1.12-27.94.01-39.32.14-1.43.42-2.71,1.47-3.76,7.41,1.66,59.67-1.21,62.02,1.11,1.4,1.39,1.44,10.24,1.49,12.98.19,11.07-.52,22.32-.45,33.42.03,5.26,1.58,10.51-.05,15.84ZM273.28,130.74l-37.1,1.05c-1.03.69-1.38,5.95-1.47,7.42-.29,4.97-.79,25.08.35,28.64.23.71.61,1.36,1.15,1.87l36.79-.37.28-38.6Z"/>
  <path d="M115.65,241.7c12.25-.21,24.91.23,37.09,1.12,2.4.18,4.72-1.65,6.69.67l.4,59.03c-.04,3.41-3.57,3.83-6.31,4.08-13.8,1.26-34.61.69-48.88.43-1.36-.02-7.85-.47-8.33-1.16l-.23-61.91c.45-1.32,4.73-1.8,6.22-1.94,4.01-.37,9.19-.25,13.35-.33ZM147.17,254.62c-10.15-.6-23.19,2.12-33.05.77-2.47-.34-3.25-2.12-5.53-2.25-.18.17.63,1.1.61,1.82-.37,10.17-1.91,25.11-.64,34.94.22,1.69,1.22,2.51,1.52,4.05h35.99l1.11-1.11v-38.21Z"/>
  <path d="M95.98,122.18c.28-1.31,2.42-3.69,4.04-3.38l60.08.7-.31,63.16c-15.22.25-30.42-1.13-45.67-.78-5.57.13-12.97,2.38-18.14-.34v-59.36ZM147.17,130.67h-38.58v39.4h38.58v-39.4Z"/>
  <path d="M35.87,221.98c-1.91,1.87-19.66-9.31-22.27-11.49-26.08-21.83-12.23-59.16,21.05-58.89l1.22,1.75v68.64Z"/>
  <path d="M35.77,252.5l-.28,68.17c-6.92.38-24.21-11.97-28.54-17.47-6.57-8.35-8.48-20-5.75-30.2,3.55-13.25,21.07-24.16,34.56-20.51Z"/>
  <path d="M35.88,403.03c-12.16-1.44-26.39-8.74-32.31-20.01-8.77-16.68-.7-37.75,16.96-43.95,3.61-1.27,15.19-4.65,15.38,1.22l-.03,62.74Z"/>
  <path d="M210.81,119.01c2.58,2.58-.19,19.9.14,24.27l-11.14,1.1c-1.48,1.03-.31,6.81-.72,8.93-.82,4.28-9.8,1.67-13.23,2.72-2.33,1.46.53,20.93-1.21,24.39-1.33,2.66-10.12,2.36-12.89,2.11-1.45-.91-.73-13.93-.83-16.63-.24-6.27-1.16-14.43-.59-20.57s9.46-2.16,13.98-3.84l.8-9.96c4.1-2.04,8.28.07,12.51-.1l.91-11.71c2.64-1.09,10.19-2.81,12.27-.74Z"/>
  <path d="M184.27,294.32l1.54.82,10.38-1.51c1.39-.96-.71-8,1.49-11.13,1.96-2.79,9.53-1.18,12.2-1.31,3.65-.17,7.78-.98,11.5-1.02,1.89,1.13,2.04,10.74,1.12,12.3-1.14,1.94-8.29,1.63-10.64,2.34l-1.6,10.44-.9.81c-9.35,2.31-18.95.15-28.42-.1-2.71-.07-7.89,2.33-9.47-1.07-1.05-2.25-.95-21.74.32-23.82,1.41-2.3,10.33-1.64,12.49.62v12.61Z"/>
  <path d="M248.09,202.68l1.67-10.95c2.38-1.07,9.94-1.79,11.32.55.27,4.69,1.78,22.17-.32,25.48-1.31,2.06-12.37,1.14-15.3,1.21-2.59.06-6.68,1.92-8.95.11-2.45-1.96-1.51-16.4.82-16.4h10.76Z"/>
  <path d="M100.05,191.21l19.38.26c1.55,1.27,2.35,9.28,1.41,11.21-1.51,3.08-10.21.78-11.17,2.18-1.4,3.25,1.58,13.57-2.33,14.73-2.17.64-10.39.89-11.2-1.86-.49-1.66-.57-22.28-.16-24.35.12-.59.13-1.15.73-1.49l3.35-.69Z"/>
  <path d="M172.14,118.2c3.15.13,8.94-1.04,11.37,1.03s.76,8.31,1.18,11.51c-1.27,1.86-10.77.84-13.08.39l-.37-12.34.89-.59Z"/>
  <path d="M285.75,203.25c-1.92,1.9-10.73,1.58-12.46-.18-1.44-1.46-.72-8.48-.38-10.8,10.81-3.31,16.93-2.13,12.84,10.98Z"/>
  <path class="cls-2" d="M273.28,130.74l-.28,38.6-36.79.37c-.54-.51-.92-1.16-1.15-1.87-1.14-3.56-.64-23.66-.35-28.64.09-1.47.44-6.73,1.47-7.42l37.1-1.05ZM262.93,158.53v-15.58l-1.11-1.11h-14.84c-.59,0-2.24,1.18-2.21,2.1l.44,15.62c2.69.42,17.04,1.07,17.72-1.03Z"/>
  <path class="cls-2" d="M147.17,254.62v38.21l-1.11,1.11h-35.99c-.3-1.53-1.3-2.35-1.52-4.05-1.27-9.83.28-24.78.64-34.94.03-.72-.79-1.65-.61-1.82,2.28.13,3.06,1.92,5.53,2.25,9.87,1.34,22.9-1.38,33.05-.77ZM118.98,267.61c-.58,2.07,0,9.74,0,12.61,0,.65,1.15,3.45,1.86,4.08h14.1c.13,0,1.86-1.72,1.86-1.86v-15.58c0-.57-2.39-1.72-3.3-1.75-1.89-.06-10.27.35-11.89.66-.87.17-2.41,1.1-2.62,1.84Z"/>
  <path class="cls-2" d="M147.17,130.67v39.4h-38.58v-39.4h38.58ZM120.09,141.84l-1.11,1.11v13.36c0,.58,1.27,2.74,1.86,3.34h14.84l1.11-1.11v-15.58l-1.11-1.11h-15.58Z"/>
  <path d="M262.93,158.53c-.69,2.1-15.04,1.45-17.72,1.03l-.44-15.62c-.03-.93,1.62-2.1,2.21-2.1h14.84l1.11,1.11v15.58Z"/>
  <path d="M118.98,267.61c.21-.73,1.75-1.67,2.62-1.84,1.61-.31,10-.72,11.89-.66.91.03,3.3,1.18,3.3,1.75v15.58c0,.13-1.72,1.86-1.86,1.86h-14.1c-.7-.63-1.86-3.43-1.86-4.08,0-2.87-.58-10.54,0-12.61Z"/>
  <path d="M120.09,141.84h15.58l1.11,1.11v15.58l-1.11,1.11h-14.84c-.58-.6-1.86-2.76-1.86-3.34v-13.36l1.11-1.11Z"/>
</svg>