<?xml version="1.0" encoding="UTF-8"?>
<svg id="Layer_1" data-name="Layer 1" xmlns="http://www.w3.org/2000/svg" xmlns:xlink="http://www.w3.org/1999/xlink" viewBox="0 0 729.31 650.01">
  <defs>
    <style>
      .cls-1 {
        fill: none;
      }

      .cls-2 {
        clip-path: url(#clippath);
      }
    </style>
    <clipPath id="clippath">
      <rect class="cls-1" width="729.31" height="650.01"/>
    </clipPath>
  </defs>
  <g class="cls-2">
    <path d="M195.68,132.74c33.18,0,60.26-27.07,60.26-60.26s-27.07-59.96-60.26-59.96-59.96,26.78-59.96,59.96,26.78,60.26,59.96,60.26ZM547.03,120.22c33.18,0,60.26-27.07,60.26-60.26S580.21,0,547.03,0s-59.96,27.07-59.96,59.96,26.78,60.26,59.96,60.26ZM28.01,206.68l61.42,4.95c4.08.29,6.99,3.2,6.99,7.86v111.49c0,22.42,7.28,44.25,20.96,61.42l71.9,92.57-36.68,121.97c-4.95,16.01,4.37,33.18,19.79,37.55,15.43,4.37,32.31-2.91,37.55-20.38l41.04-137.1c.87-2.62,1.17-4.66,1.17-7.28l111.2,140.59c10.19,12.81,29.4,15.43,41.63,5.24,13.1-11.06,15.43-29.11,5.24-42.21l-198.53-251.21,9.02-89.07c.87-6.4,6.7-9.61,12.23-6.99l68.99,34.64c4.66,2.62,13.1,4.37,19.8,4.37h106.25c6.98,0,14.26-2.62,19.21-6.99l50.36-43.08c4.95-4.37,11.06-2.33,13.39,3.49l28.23,78.59-119.06,32.6c-11.94,3.2-21.25,13.68-22.42,26.2l-13.39,137.1c-1.75,19.5,15.43,32.6,29.98,32.6s28.23-11.06,29.69-26.78l11.35-114.11,83.55-12.81-39.88,80.34c-4.37,8.73-6.7,18.34-3.2,27.36l55.02,137.1c6.69,16.59,24.74,22.41,39.01,16.59,15.14-6.11,22.7-23.58,16.59-39.01l-48.9-121.97,67.53-96.06c17.17-23.87,23.29-54.73,18.05-83.55l-10.48-57.63c-1.45-7.86,4.66-12.81,11.93-10.48l34.64,11.64c23.58,8.15,41.33-6.4,39.3-29.98l-13.97-138.56c-1.45-17.17-16.88-28.82-32.6-27.07-16.01,1.75-28.53,16.3-27.07,33.18l9.32,91.4-82.67-27.65c-33.77-11.35-69.57-5.24-97.52,18.92l-56.76,48.9h-91.98l-88.78-44.25c-13.39-6.99-26.49-10.48-41.33-11.64l-124.3-9.32,28.82-87.04c5.53-16.01-3.2-32.89-18.63-38.13-15.72-5.24-32.89,3.2-37.84,18.92L1.52,167.09c-6.11,18.63,6.99,38.13,26.49,39.59Z"/>
  </g>
</svg>