<svg width="148" height="73" viewBox="0 0 148 73" fill="none" xmlns="http://www.w3.org/2000/svg">
<path d="M45.2596 21.5832C47.9774 25.1281 50.2225 30.2681 50.2225 36.4126C50.2225 48.4061 43.1327 56.5003 32.8525 56.5003C30.6665 56.5003 28.1851 55.9095 25.9991 54.9642L25.9991 61.4041C25.9991 65.0671 23.6358 67.4304 19.9728 67.4304H16.1916C13.1784 67.4304 11.0515 65.8942 9.04271 63.3537C8.39281 62.4675 7.21118 60.5178 7.21118 57.8592L7.21118 20.6379C7.21118 17.0339 9.51536 14.6116 13.2375 14.6116H16.1325C17.9049 14.6116 19.5001 15.1433 20.6227 16.1477C23.3404 14.4934 26.1763 13.6663 29.1304 13.6663C35.3339 13.6663 40.7694 16.3249 45.2596 21.5832Z" fill="white"/>
<path d="M45.2596 21.5832C47.9774 25.1281 50.2225 30.2681 50.2225 36.4126C50.2225 48.4061 43.1327 56.5003 32.8525 56.5003C30.6665 56.5003 28.1851 55.9095 25.9991 54.9642L25.9991 61.4041C25.9991 65.0671 23.6358 67.4304 19.9728 67.4304H16.1916C13.1784 67.4304 11.0515 65.8942 9.04271 63.3537C8.39281 62.4675 7.21118 60.5178 7.21118 57.8592L7.21118 20.6379C7.21118 17.0339 9.51536 14.6116 13.2375 14.6116H16.1325C17.9049 14.6116 19.5001 15.1433 20.6227 16.1477C23.3404 14.4934 26.1763 13.6663 29.1304 13.6663C35.3339 13.6663 40.7694 16.3249 45.2596 21.5832ZM29.8984 50.3558C38.7607 50.3558 44.6688 43.3842 44.6688 32.8677C44.6688 23.0602 38.3471 16.2658 29.1304 16.2658C25.94 16.2658 23.045 17.3884 20.0319 19.7516L19.8546 19.6926C19.382 18.0383 18.1412 17.2111 16.1325 17.2111H13.2375C10.9333 17.2111 9.81076 18.4519 9.81076 20.6379L9.81076 57.8592C9.81076 60.1633 10.9924 61.2859 13.2375 61.2859H17.0187C19.2638 61.2859 20.4454 60.1043 20.4454 57.8592L20.4454 46.6928L20.6227 46.6337C22.0997 48.288 26.0582 50.3558 29.8984 50.3558ZM27.0035 24.7145C29.603 24.7145 34.0341 25.837 34.0341 32.8677C34.0341 40.4301 29.603 41.6118 27.2989 41.6118C22.0997 41.6118 21.1544 38.3032 21.1544 33.5767C21.1544 31.8633 21.1544 30.5045 21.2726 29.6773C21.6271 26.8414 24.1085 24.7145 27.0035 24.7145ZM31.4346 32.8677C31.4346 30.859 31.4936 30.859 29.9575 30.859C28.3623 30.859 26.9444 32.0406 26.7671 33.5767C26.7081 34.2266 26.7081 35.3491 26.7081 37.1216C26.7081 38.7168 26.8853 39.0122 27.5352 39.0122C30.0166 39.0122 31.4346 36.8853 31.4346 32.8677Z" fill="black"/>
<path d="M58.4795 13.627C71.2411 13.627 81.1077 23.789 81.1077 36.8459V36.9641C81.1077 39.6819 79.7488 41.6906 77.5628 42.5178C78.5081 43.4631 78.9808 44.9401 78.9808 46.5353V47.1261C78.9808 50.1393 77.681 52.3253 75.1996 53.566C71.2411 55.4566 66.2783 56.461 61.4336 56.461C48.0812 56.461 38.0964 46.5944 38.0964 33.242C38.0964 21.9574 46.7223 13.627 58.4795 13.627Z" fill="white"/>
<path d="M58.4795 13.627C71.2411 13.627 81.1077 23.789 81.1077 36.8459V36.9641C81.1077 39.6819 79.7488 41.6906 77.5628 42.5178C78.5081 43.4631 78.9808 44.9401 78.9808 46.5353V47.1261C78.9808 50.1393 77.681 52.3253 75.1996 53.566C71.2411 55.4566 66.2783 56.461 61.4336 56.461C48.0812 56.461 38.0964 46.5944 38.0964 33.242C38.0964 21.9574 46.7223 13.627 58.4795 13.627ZM75.6131 33.242C75.9085 22.9618 68.3461 16.2265 58.4795 16.2265C48.4948 16.2265 40.696 22.9618 40.696 33.242C40.696 43.5222 48.4948 50.3165 58.4795 50.3165C63.4424 50.3165 67.8144 49.3121 71.1229 47.7169C72.6591 46.8898 73.4271 45.6491 73.4271 43.5812V42.9904C73.4271 41.218 72.6591 40.2136 71.2411 40.2136C70.4962 40.2136 69.6411 40.7249 69.071 40.896C66.7077 41.6049 65.2414 42.7012 59.4601 42.7012C53.6787 42.7012 50.02 40.2136 49.735 36.7869C49.735 36.7869 54.3438 37.6717 60.8853 37.6717C67.4267 37.6717 71.9214 36.9641 71.9214 36.9641C73.9008 36.6075 75.5541 35.6052 75.6131 33.242ZM59.1414 23.1346C64.8061 23.1346 68.5523 26.8296 69.1337 30.2109C69.214 30.678 68.7842 31.0492 68.313 30.9982C67.0149 30.8575 64.2126 30.6407 59.27 30.6407C54.4629 30.6407 51.8564 30.8458 50.634 30.9864C50.1636 31.0406 49.7193 30.679 49.7851 30.21C50.2555 26.8593 53.8306 23.1346 59.1414 23.1346Z" fill="black"/>
<mask id="mask0_64_93" style="mask-type:alpha" maskUnits="userSpaceOnUse" x="53" y="25" width="14" height="7">
<path d="M66.5437 30.5064C66.1561 28.2522 63.6586 25.7889 59.8821 25.7889C56.3416 25.7889 53.9582 28.272 53.6446 30.5058C53.6007 30.8185 53.8969 31.0596 54.2105 31.0235C55.0255 30.9297 56.7632 30.7929 59.9679 30.7929C63.2629 30.7929 65.1311 30.9375 65.9965 31.0313C66.3106 31.0653 66.5972 30.8178 66.5437 30.5064Z" fill="white"/>
</mask>
<g mask="url(#mask0_64_93)">
<path d="M66.9193 30.4148C66.4712 27.8084 63.5835 24.9601 59.2169 24.9601C55.1233 24.9601 52.3674 27.8313 52.0049 30.4141C51.9541 30.7756 52.2966 31.0543 52.6592 31.0126C53.6015 30.9042 55.6107 30.7461 59.3161 30.7461C63.126 30.7461 65.2861 30.9132 66.2867 31.0216C66.6499 31.061 66.9813 30.7748 66.9193 30.4148Z" fill="#FFECE4"/>
<ellipse cx="61.2674" cy="27.8527" rx="3.82384" ry="4.25837" fill="black"/>
<ellipse cx="62.5237" cy="26.8682" rx="1.69334" ry="1.91911" fill="white"/>
</g>
<path d="M50.9072 30.3523C50.9072 30.3523 53.8266 30.613 59.2746 30.8065C64.7226 30.9999 68.1661 30.8065 68.1661 30.8065" stroke="black" stroke-width="1.90028" stroke-linecap="round"/>
<path d="M87.3714 13.6269C100.133 13.6269 110 23.7889 110 36.8459V36.964C110 39.6818 108.641 41.6905 106.455 42.5177C107.4 43.463 107.873 44.94 107.873 46.5352V47.126C107.873 50.1392 106.573 52.3252 104.091 53.5659C100.133 55.4565 95.1701 56.4609 90.3254 56.4609C76.973 56.4609 66.9883 46.5943 66.9883 33.2419C66.9883 21.9573 75.6142 13.6269 87.3714 13.6269Z" fill="white"/>
<path d="M87.3714 13.6269C100.133 13.6269 110 23.7889 110 36.8459V36.964C110 39.6818 108.641 41.6905 106.455 42.5177C107.4 43.463 107.873 44.94 107.873 46.5352V47.126C107.873 50.1392 106.573 52.3252 104.091 53.5659C100.133 55.4565 95.1701 56.4609 90.3254 56.4609C76.973 56.4609 66.9883 46.5943 66.9883 33.2419C66.9883 21.9573 75.6142 13.6269 87.3714 13.6269ZM104.505 33.2419C104.8 22.9617 97.238 16.2264 87.3714 16.2264C77.3866 16.2264 69.5879 22.9617 69.5879 33.2419C69.5879 43.5221 77.3866 50.3164 87.3714 50.3164C92.3342 50.3164 96.7062 49.312 100.015 47.7168C101.551 46.8897 102.319 45.649 102.319 43.5811V42.9903C102.319 41.2179 101.551 40.2135 100.133 40.2135C99.388 40.2135 98.5329 40.7248 97.9628 40.8959C95.5996 41.6048 94.1332 42.7011 88.3519 42.7011C82.5706 42.7011 78.9119 40.2135 78.6268 36.7868C78.6268 36.7868 83.2357 37.6716 89.7771 37.6716C96.3186 37.6716 100.813 36.964 100.813 36.964C102.793 36.6075 104.446 35.6051 104.505 33.2419ZM88.0332 23.1345C93.6979 23.1345 97.4442 26.8295 98.0255 30.2108C98.1059 30.6779 97.676 31.0492 97.2048 30.9981C95.9067 30.8574 93.1044 30.6406 88.1619 30.6406C83.3548 30.6406 80.7483 30.8457 79.5258 30.9864C79.0554 31.0405 78.6111 30.6789 78.677 30.2099C79.1473 26.8592 82.7225 23.1345 88.0332 23.1345Z" fill="black"/>
<mask id="mask1_64_93" style="mask-type:alpha" maskUnits="userSpaceOnUse" x="82" y="25" width="14" height="7">
<path d="M95.4357 30.5063C95.0482 28.2521 92.5507 25.7887 88.7742 25.7887C85.2337 25.7887 82.8503 28.2719 82.5367 30.5057C82.4928 30.8183 82.789 31.0594 83.1026 31.0233C83.9176 30.9295 85.6552 30.7928 88.86 30.7928C92.155 30.7928 94.0232 30.9373 94.8886 31.0311C95.2027 31.0652 95.4893 30.8177 95.4357 30.5063Z" fill="white"/>
</mask>
<g mask="url(#mask1_64_93)">
<path d="M95.8119 30.4145C95.3638 27.8081 92.476 24.9599 88.1095 24.9599C84.0158 24.9599 81.26 27.831 80.8974 30.4139C80.8467 30.7753 81.1891 31.0541 81.5518 31.0123C82.494 30.9039 84.5032 30.7458 88.2087 30.7458C92.0185 30.7458 94.1787 30.9129 95.1793 31.0214C95.5425 31.0607 95.8738 30.7746 95.8119 30.4145Z" fill="#FFECE4"/>
<ellipse cx="90.16" cy="27.8526" rx="3.82384" ry="4.25837" fill="black"/>
<ellipse cx="91.4157" cy="26.868" rx="1.69334" ry="1.91911" fill="white"/>
</g>
<path d="M79.7988 30.3521C79.7988 30.3521 82.5636 30.6128 88.0116 30.8062C93.4596 30.9997 97.0577 30.8062 97.0577 30.8062" stroke="black" stroke-width="1.90028" stroke-linecap="round"/>
<path d="M142.165 48.1617C142.933 49.2843 143.465 50.584 143.465 51.7066C143.465 54.4834 141.161 56.374 137.911 56.374H133.539C130.821 56.374 128.517 55.3106 126.981 53.1245L124.263 49.5797L123.791 48.9298C123.732 54.1289 121.841 56.374 117.646 56.374H113.865C111.147 56.374 108.961 55.1924 106.775 52.2974C106.066 51.4112 104.885 49.4615 104.885 46.8028L104.885 9.58154C104.885 5.97758 107.189 3.55524 110.911 3.55524H114.692C117.351 3.55524 119.537 4.85503 121.664 7.57277C122.432 8.57716 123.673 10.5268 123.673 13.1264V17.203C125.091 15.9623 126.804 15.3715 128.872 15.3715H132.062C135.253 15.3715 137.32 17.144 138.797 18.6801C139.861 19.6845 140.688 21.2797 140.688 22.993C140.688 24.5882 139.979 26.1243 138.857 27.4241L132.712 34.5139L142.165 48.1617Z" fill="white"/>
<path d="M142.165 48.1617C142.933 49.2843 143.465 50.584 143.465 51.7066C143.465 54.4834 141.161 56.374 137.911 56.374H133.539C130.821 56.374 128.517 55.3106 126.981 53.1245L124.263 49.5797L123.791 48.9298C123.732 54.1289 121.841 56.374 117.646 56.374H113.865C111.147 56.374 108.961 55.1924 106.775 52.2974C106.066 51.4112 104.885 49.4615 104.885 46.8028L104.885 9.58154C104.885 5.97758 107.189 3.55524 110.911 3.55524H114.692C117.351 3.55524 119.537 4.85503 121.664 7.57277C122.432 8.57716 123.673 10.5268 123.673 13.1264V17.203C125.091 15.9623 126.804 15.3715 128.872 15.3715H132.062C135.253 15.3715 137.32 17.144 138.797 18.6801C139.861 19.6845 140.688 21.2797 140.688 22.993C140.688 24.5882 139.979 26.1243 138.857 27.4241L132.712 34.5139L142.165 48.1617ZM134.957 50.2296C136.73 50.2296 137.852 49.5206 137.852 48.1617C137.852 47.5709 137.616 46.8619 137.084 46.1529L126.509 30.7327L133.953 22.1659C134.662 21.3978 135.016 20.5707 135.016 19.9208C135.016 18.7392 133.835 17.9711 132.062 17.9711H128.872C126.922 17.9711 125.622 18.621 124.559 19.9799L118.119 27.7786V9.58154C118.119 7.33645 116.878 6.15482 114.692 6.15482H110.911C108.607 6.15482 107.484 7.39553 107.484 9.58154L107.484 46.8028C107.484 49.107 108.666 50.2296 110.911 50.2296H114.692C116.937 50.2296 118.119 49.0479 118.119 46.8028V40.5993L119.773 38.5905L126.39 48.0435C127.454 49.5797 128.695 50.2296 130.585 50.2296H134.957Z" fill="black"/>
</svg>
