<svg width="171" height="60" viewBox="0 0 171 60" fill="none" xmlns="http://www.w3.org/2000/svg">
<path d="M1.55176 1.55176V56.5439L12.9346 46.4268L13.375 46.0342H169.138V1.55176H1.55176Z" fill="white" stroke="black" stroke-width="3.10345"/>
<path d="M48.0376 37V12.1121H62.1704C68.9553 12.1121 72.9848 15.1342 72.9848 21.8302C72.9848 28.5262 68.9553 31.5484 62.2 31.5484H56.2447V37H48.0376ZM56.2447 24.7338H61.4593C63.4444 24.7338 64.7184 23.7561 64.7184 21.8302C64.7184 19.9044 63.4444 18.9266 61.4889 18.9266H56.2447V24.7338Z" fill="black"/>
<path d="M75.4838 37V12.1121H97.9125V18.6896H83.6909V21.8598H97.3792V27.2522H83.6909V30.4225H97.9125V37H75.4838Z" fill="black"/>
<path d="M100.708 37V12.1121H123.137V18.6896H108.915V21.8598H122.603V27.2522H108.915V30.4225H123.137V37H100.708Z" fill="black"/>
<path d="M153.072 37H144.687L138.05 28.1411H137.517L134.109 31.7854V37H125.932V12.1121H134.109V21.9783H134.643L143.62 12.1121H152.746L142.642 23.1931L153.072 37Z" fill="black"/>
<rect x="28.0713" y="12" width="8.92857" height="8.92857" fill="black"/>
<rect x="29.8569" y="13.7857" width="5.35714" height="5.35714" fill="white"/>
<rect x="30.75" y="14.6786" width="3.57143" height="3.57143" fill="black"/>
<rect x="12" y="12" width="8.92857" height="8.92857" fill="black"/>
<rect x="12" y="28.0714" width="8.92857" height="8.92857" fill="black"/>
<rect x="13.7856" y="13.7857" width="5.35714" height="5.35714" fill="white"/>
<rect x="13.7856" y="29.8571" width="5.35714" height="5.35714" fill="white"/>
<rect x="14.6787" y="14.6786" width="3.57143" height="3.57143" fill="black"/>
<rect x="14.6787" y="30.75" width="3.57143" height="3.57143" fill="black"/>
</svg>
