<svg width="241" height="73" viewBox="0 0 241 73" fill="none" xmlns="http://www.w3.org/2000/svg">
<path d="M240.541 0H6.10352e-05V58.1441V73L16.7387 58.1441H240.541V0Z" fill="white"/>
<path d="M3.71392 3.71387H236.827V54.4307H15.3282L3.71392 64.7383V3.71387ZM5.73494e-05 73L16.7383 58.1445H240.541V0H5.73494e-05V73Z" fill="black"/>
<path d="M222.607 17.0396V23.8792H213.665V41.9107H205.464V23.8792H196.522V17.0396H222.607Z" fill="black"/>
<path d="M191.338 41.9107L190.243 38.6242H179.584L178.488 41.9107H170.02L179.169 17.0396H190.657L199.806 41.9107H191.338ZM181.597 32.5544H188.229L185.624 24.7378H184.202L181.597 32.5544Z" fill="black"/>
<path d="M159.912 17.0396H168.113V41.9107H159.912V32.9097H150.26V41.9107H142.058V17.0396H150.26V26.0406H159.912V17.0396Z" fill="black"/>
<path d="M126.6 42.7397C122.416 42.7397 119.04 41.5258 116.474 39.0979C113.908 36.67 112.625 33.4624 112.625 29.4752C112.625 25.4879 113.908 22.2803 116.474 19.8524C119.04 17.4245 122.416 16.2106 126.6 16.2106C127.863 16.2106 129.068 16.329 130.212 16.5659C131.357 16.783 132.482 17.1679 133.588 17.7206C134.693 18.2536 135.66 18.9346 136.489 19.7636C137.318 20.5729 138.019 21.6289 138.592 22.9317C139.184 24.2147 139.559 25.6655 139.717 27.2841H131.9C131.229 24.6194 129.462 23.287 126.6 23.287C124.942 23.287 123.551 23.8594 122.425 25.0043C121.32 26.1492 120.767 27.6394 120.767 29.4752C120.767 31.3109 121.32 32.8012 122.425 33.946C123.551 35.0909 124.942 35.6633 126.6 35.6633C129.462 35.6633 131.229 34.3112 131.9 31.607H139.717C139.519 33.6401 139.016 35.4067 138.207 36.9069C137.397 38.3873 136.371 39.542 135.127 40.3711C133.884 41.2001 132.551 41.8021 131.13 42.1772C129.729 42.5522 128.219 42.7397 126.6 42.7397Z" fill="black"/>
<path d="M111.455 41.9107H103.402L100.026 35.4857H93.8085V41.9107H85.6069V17.0396H99.8486C107.034 17.0396 110.626 20.2077 110.626 26.5439C110.626 29.6429 109.422 32.0412 107.014 33.7388L111.455 41.9107ZM93.8085 23.8496V29.3567H99.286C100.312 29.3567 101.092 29.1199 101.625 28.6461C102.158 28.1724 102.425 27.4914 102.425 26.6032C102.425 25.7149 102.158 25.0339 101.625 24.5602C101.092 24.0864 100.312 23.8496 99.286 23.8496H93.8085Z" fill="black"/>
<path d="M83.2507 29.1791C83.2507 32.3373 82.1058 35.081 79.8161 37.4102L83.073 40.7264C81.8492 42.3252 80.3293 43.8747 78.5133 45.3749L74.457 41.6738C72.6607 42.3844 70.8941 42.7397 69.1571 42.7397C64.8935 42.7397 61.4786 41.5258 58.9126 39.0979C56.3465 36.67 55.0635 33.4624 55.0635 29.4752C55.0635 25.4879 56.3465 22.2803 58.9126 19.8524C61.4786 17.4245 64.8935 16.2106 69.1571 16.2106C73.4009 16.2106 76.8059 17.4147 79.372 19.8228C81.9578 22.2112 83.2507 25.33 83.2507 29.1791ZM64.8935 24.9451C63.7683 26.0505 63.2058 27.5605 63.2058 29.4752C63.2058 31.3898 63.7683 32.8999 64.8935 34.0052C66.0383 35.1106 67.4595 35.6633 69.1571 35.6633C70.8546 35.6633 72.266 35.1106 73.3911 34.0052C74.5359 32.8999 75.1084 31.3898 75.1084 29.4752C75.1084 27.5605 74.5359 26.0505 73.3911 24.9451C72.266 23.8397 70.8546 23.287 69.1571 23.287C67.4595 23.287 66.0383 23.8397 64.8935 24.9451Z" fill="black"/>
<rect x="17.9507" y="14.3607" width="11.9672" height="11.9672" fill="black"/>
<rect x="20.3442" y="16.7541" width="7.18033" height="7.18033" fill="white"/>
<rect x="21.541" y="17.9508" width="4.78688" height="4.78688" fill="black"/>
<rect x="17.9507" y="31.1147" width="11.9672" height="11.9672" fill="black"/>
<rect x="20.3442" y="33.5082" width="7.18033" height="7.18033" fill="white"/>
<rect x="21.541" y="34.7049" width="4.78688" height="4.78688" fill="black"/>
<rect x="34.7051" y="14.3607" width="11.9672" height="11.9672" fill="black"/>
<rect x="37.0981" y="16.7541" width="7.18033" height="7.18033" fill="white"/>
<rect x="38.2949" y="17.9508" width="4.78688" height="4.78688" fill="black"/>
</svg>
